<svg width="360" height="850" viewBox="0 0 360 850" fill="none" xmlns="http://www.w3.org/2000/svg">
<g clip-path="url(#clip0_62_13)">
<path d="M2.84622 847.875C2.84622 847.875 10.8171 819.556 15.669 811.558C18.7047 806.554 21.6054 803.937 25.4547 801.37C29.6163 798.595 35.1171 796.264 40 795.951C44.815 795.642 50.2258 797.153 54.5454 799.383C58.6624 801.508 62.2273 804.811 65.4547 808.718C68.9814 812.987 72.103 818.376 74.5695 824.372C77.3775 831.198 80.77 847.875 80.77 847.875" stroke="#71717A" stroke-linecap="round"/>
<path d="M33.016 2.125C33.016 2.125 46.228 24.7727 54.5453 31.5669C62.0909 37.731 73.2163 41.8147 80 42.602C84.329 43.104 87.3935 42.0877 90.9089 40.5758C94.6849 38.9523 98.2786 36.9049 101.818 32.8105C107.121 26.6767 117.074 4.27125 117.074 4.27125" stroke="#71717A" stroke-linecap="round"/>
<path d="M358.2 117.446C358.2 117.446 352.005 118.056 349.029 119.598C345.622 121.364 341.852 123.871 339.131 128.141C335.395 134.003 331.443 144.969 331.195 153.769C330.939 162.906 334.317 175.689 338.182 182.012C341.001 186.624 345.44 189.58 349.091 190.915C352.117 192.021 358.2 190.869 358.2 190.869" stroke="#71717A" stroke-linecap="round"/>
<path d="M174.546 398.677C168.904 400.054 163.092 404.587 158.638 410.05C153.492 416.362 149.466 426.217 146.598 435.679C143.475 445.98 141.987 457.503 141.301 469.849C140.504 484.216 141.305 501.719 143.296 516.834C145.212 531.379 148.283 546.907 152.727 558.951C156.478 569.113 161.199 579.212 166.757 585.176C171.211 589.956 176.594 593.463 181.818 594.162C187.009 594.857 193.109 592.718 197.994 589.447C203.397 585.83 208.355 579.103 212.343 572.362C216.669 565.05 219.98 556.101 222.517 546.734C225.326 536.356 227.071 523.999 227.797 512.563C228.518 501.217 228.184 489.706 226.907 478.392C225.613 466.923 223.425 454.757 220.001 444.221C216.762 434.256 212.4 424.008 207.273 416.62C202.835 410.224 197.631 404.465 191.971 401.508C186.656 398.73 180.032 397.337 174.546 398.677Z" stroke="#71717A" stroke-linecap="round"/>
<path d="M358.2 568.184C358.2 568.184 348.025 587.1 345.005 597.99C341.757 609.7 340.171 623.607 340.042 636.432C339.914 649.236 341.455 661.921 344.218 674.875C347.219 688.947 358.077 717.588 358.077 717.588" stroke="#71717A" stroke-linecap="round"/>
<path d="M1.80011 772.031C1.80011 772.031 12.3337 761.928 18.1819 758.724C23.8753 755.605 30.2523 753.566 36.3637 752.869C42.3748 752.184 48.6087 752.713 54.5455 754.453C60.7406 756.269 67.2733 759.635 72.7273 763.863C78.1822 768.091 83.2069 773.902 87.2727 779.82C91.2183 785.564 94.0987 790.637 96.8986 798.744C101.133 811.006 106.796 847.875 106.796 847.875" stroke="#71717A" stroke-linecap="round"/>
<path d="M1.80012 58.5087C1.80012 58.5087 11.2704 57.6496 18.1819 59.3018C31.2094 62.416 57.1618 80.4923 72.7273 83.4376C83.7321 85.5196 94.6522 84.6 101.818 82.0367C106.566 80.3388 109.334 77.7144 112.727 74.1837C116.697 70.0527 120.242 65.4744 123.636 58.0412C129.255 45.7396 138.503 4.27124 138.503 4.27124" stroke="#71717A" stroke-linecap="round"/>
<path d="M358.2 66.4939C358.2 66.4939 339.469 68.8213 331.645 72.6128C324.477 76.0872 317.851 81.0985 312.727 87.448C307.539 93.8772 303.558 102.112 300.797 111.055C297.699 121.092 296.188 132.942 296.098 145.226C295.994 159.56 298.089 177.838 301.818 191.878C305.183 204.546 310.237 217.382 316.364 226.193C321.519 233.61 327.635 239.818 334.545 242.861C341.556 245.949 358.2 244.365 358.2 244.365" stroke="#71717A" stroke-linecap="round"/>
<path d="M156.364 353.231C149.19 358.44 143.238 367.546 138.182 377.277C132.252 388.69 127.686 403.83 124.538 418.593C121.141 434.524 119.584 451.515 119.237 469.849C118.838 490.973 120.745 515.542 123.696 538.191C126.682 561.106 131.15 588.327 137.153 606.533C141.536 619.823 147.252 632.152 152.727 639.089C156.246 643.548 159.84 645.77 163.636 647.613C167.137 649.313 170.639 650.053 174.545 650.167C179.037 650.298 184.095 649.461 189.091 647.639C194.949 645.503 201.213 642.23 207.273 637.19C214.89 630.855 223.397 621.365 230.118 610.804C237.734 598.834 245.222 583.116 249.521 568.091C253.781 553.202 255.505 538.013 255.913 521.106C256.388 501.435 254.076 477.395 250.343 457.035C246.783 437.619 241.725 417.74 234.547 401.508C228.058 386.833 217.931 371.668 210.389 363.065C205.5 357.488 201.478 354.483 196.364 351.644C191.158 348.753 185.476 346.032 179.379 345.98C172.295 345.919 163.064 348.366 156.364 353.231Z" stroke="#71717A" stroke-linecap="round"/>
<path d="M358.2 519.959C358.2 519.959 346.044 531.163 340.81 538.191C335.248 545.66 329.861 554.984 326.03 563.819C322.438 572.105 319.896 580.441 318.144 589.447C316.304 598.903 315.515 609.048 315.525 619.347C315.535 630.357 316.793 642.211 318.581 653.518C320.396 664.994 322.125 674.356 326.404 687.688C333.014 708.289 358.2 763.399 358.2 763.399" stroke="#71717A" stroke-linecap="round"/>
<path d="M1.79975 727.297C1.79975 727.297 17.322 719.969 25.4544 718.253C33.6858 716.516 42.4689 716.189 50.9087 717.034C59.4393 717.888 68.4043 719.959 76.3634 723.429C84.1381 726.819 92.4536 732.061 98.1817 737.429C102.84 741.795 105.847 746.08 109.091 751.918C112.995 758.946 116.286 766.49 119.1 777.387C123.587 794.762 128.58 847.875 128.58 847.875" stroke="#71717A" stroke-linecap="round"/>
<path d="M1.7998 168.378C1.7998 168.378 8.8594 143.469 14.5452 135.056C19.3039 128.016 25.5585 122.405 31.8418 119.598C37.7409 116.963 43.0508 117.469 50.9087 117.896C63.8215 118.597 89.993 127.991 101.818 128.047C108.134 128.077 112.006 127.199 116.363 125.288C120.427 123.506 123.903 120.988 127.272 117.357C131.288 113.03 135.097 106.59 138.182 100.168C141.521 93.2179 143.773 86.9964 146.261 76.8846C150.52 59.5712 157.233 4.27124 157.233 4.27124" stroke="#71717A" stroke-linecap="round"/>
<path d="M358.2 31.4235C358.2 31.4235 328.239 32.9811 316.364 37.7714C306.43 41.7781 297.77 47.1633 290.909 55.4051C283.617 64.1655 278.214 76.917 274.538 89.6984C270.502 103.732 268.892 119.557 268.872 136.683C268.848 157.334 273.342 187.044 276.951 205.025C279.393 217.187 281.991 225.523 285.533 234.925C288.951 243.993 293.305 253.516 297.688 260.553C301.268 266.299 304.791 270.729 309.091 274.78C313.431 278.866 318.327 282.574 323.637 284.926C329.192 287.387 335.91 288.852 341.818 288.927C347.416 288.998 358.2 285.75 358.2 285.75" stroke="#71717A" stroke-linecap="round"/>
<path d="M1.80019 685.838C1.80019 685.838 64.3403 682.121 80.0003 677.678C87.0729 675.671 90.8111 674.096 94.8498 670.603C98.6361 667.329 101.57 663.682 103.808 657.789C107.232 648.772 108.267 636.05 108.825 619.347C109.857 588.486 100.623 523.844 100.509 486.935C100.428 460.425 101.718 438.586 104.378 418.593C106.51 402.564 109.533 389.569 113.418 375.88C117.202 362.546 122.108 348.792 127.251 337.437C131.707 327.597 136.477 318.256 141.819 311.205C146.322 305.259 151.194 299.994 156.364 296.98C160.959 294.3 165.568 293.067 170.909 293.034C177.444 292.995 185.677 295.368 192.728 298.675C200.253 302.205 207.699 307.91 214.546 314.144C221.759 320.712 228.439 328.188 234.767 337.437C242.151 348.23 248.478 359.583 255.235 375.88C265.487 400.608 276.671 453.103 285.531 474.12C290.074 484.898 293.995 493.083 298.182 497.201C300.616 499.595 302.732 500.341 305.455 500.758C308.674 501.251 311.682 500.615 316.364 499.01C325.938 495.726 358.2 476.322 358.2 476.322" stroke="#71717A" stroke-linecap="round"/>
<path d="M149.555 847.875C149.555 847.875 146.927 782.569 149.699 760.302C151.467 746.092 153.746 735.047 158.332 726.131C162.138 718.731 165.773 716.174 173.28 709.045C190.587 692.608 249.309 641.783 265.455 636.86C270.533 635.312 272.98 636.088 276.364 637.896C280.351 640.026 282.699 643.222 287.273 650.373C301.65 672.85 358.2 806.483 358.2 806.483" stroke="#71717A" stroke-linecap="round"/>
<path d="M301.21 2.125C301.21 2.125 290.674 5.46178 285.829 8.5425C280.743 11.7767 275.939 16.1117 271.503 21.3568C266.521 27.2473 261.768 35.0067 257.841 42.7136C253.805 50.635 250.602 57.919 247.72 68.3416C243.642 83.0875 240.169 102.427 238.44 123.869C236.113 152.727 241.678 208.689 238.872 226.382C237.844 232.867 237.009 236.33 234.599 239.196C232.383 241.83 229.055 243.347 225.455 243.537C220.457 243.8 213.429 240.312 207.273 237.06C200.13 233.285 191.553 227.126 185.455 221.32C180.187 216.306 175.534 210.903 172.281 205.025C169.333 199.696 167.403 194.354 166.244 187.94C164.88 180.392 165.193 173.59 165.696 162.312C166.686 140.138 174.654 93.1111 176.62 64.0703C178.175 41.1039 178.142 2.12499 178.142 2.12499" stroke="#71717A" stroke-linecap="round"/>
<path d="M1.80001 280.029C1.80001 280.029 14.481 214.84 21.1496 196.482C24.7284 186.63 27.8829 180.637 32.0747 175.126C35.5505 170.556 39.0582 166.983 43.6365 164.734C48.7818 162.206 55.3725 161.118 61.8183 161.754C69.4404 162.508 78.5003 166.582 86.3001 170.854C94.3124 175.242 102.759 181.227 109.195 187.94C115.178 194.179 121.092 202.158 124.043 209.297C126.392 214.979 126.976 220.078 127.288 226.382C127.666 234.029 127.022 240.557 125.022 252.01C120.692 276.809 101.492 335.676 94.5315 367.337C89.7624 389.03 86.904 404.642 84.7363 422.864C82.6735 440.21 82.0566 454.265 81.531 474.12C80.8047 501.573 84.0073 548.123 82.467 572.362C81.5526 586.75 80.5581 597.192 77.7658 606.533C75.6067 613.756 72.9733 619.646 69.0907 624.524C65.2248 629.381 60.1425 633.15 54.5454 635.768C48.2269 638.724 40.6642 639.679 32.7271 640.318C23.3464 641.073 1.79999 638.907 1.79999 638.907" stroke="#71717A" stroke-linecap="round"/>
<path d="M358.2 422.727C358.2 422.727 341.233 422.9 334.545 421.063C329.271 419.614 324.879 417.945 320.957 414.321C316.617 410.312 312.65 403.591 310.17 397.236C307.656 390.794 305.559 382.66 306.069 375.88C306.558 369.369 307.983 362.637 312.727 357.282C320.707 348.277 358.091 337.437 358.091 337.437" stroke="#71717A" stroke-linecap="round"/>
<path d="M171.674 847.875C171.674 847.875 173.354 806.656 176.985 790.201C179.89 777.038 184.274 765.434 189.273 756.03C193.435 748.2 197.867 743.121 203.636 736.671C210.664 728.814 221.139 719.457 229.091 713.113C235.498 708.002 241.38 703.445 247.273 700.718C252.24 698.42 256.77 696.316 261.818 696.817C267.616 697.393 274.379 700.89 280 705.673C286.682 711.359 291.371 719.83 298.182 730.493C308.919 747.304 326.247 777.397 335.99 798.744C343.886 816.042 354.044 847.875 354.044 847.875" stroke="#71717A" stroke-linecap="round"/>
<path d="M1.89805 465.578C1.89805 465.578 21.5032 295.454 32.7271 256.492C37.4107 240.234 42.5866 229.864 47.2729 223.773C49.7421 220.563 51.7342 219.21 54.5453 218.155C57.6958 216.973 61.9623 216.557 65.4547 217.69C69.2626 218.926 73.3567 222.441 76.3636 225.994C79.4074 229.59 81.7146 233.478 83.5605 239.196C86.3001 247.684 88.5703 258.328 88.1226 273.367C87.2347 303.173 68.1488 361.035 62.2597 405.779C56.3431 450.728 58.4108 515.233 52.7809 542.463C50.2465 554.72 47.9303 562.288 43.6756 568.091C40.3883 572.574 36.1628 575.736 31.6304 576.633C26.5769 577.634 19.3499 576.028 14.5408 572.362C9.19928 568.29 1.79994 551.847 1.79994 551.847" stroke="#71717A" stroke-linecap="round"/>
<path d="M197.342 847.875C197.342 847.875 200.273 822.818 203.657 811.558C206.884 800.823 210.993 790.668 216.827 781.658C222.957 772.189 231.839 762.026 240 756.418C246.956 751.638 254.9 748.022 261.818 748.191C268.178 748.347 274.266 751.921 280 756.045C286.477 760.703 292.072 767.852 298.182 775.785C305.762 785.627 314.705 799.208 321.148 811.558C327.263 823.28 336.215 847.875 336.215 847.875" stroke="#71717A" stroke-linecap="round"/>
<path d="M231.947 847.875C231.947 847.875 241.957 824.025 247.272 817.159C250.817 812.58 254.36 809.907 258.181 807.922C261.664 806.113 264.901 804.756 269.091 805.221C275.191 805.899 284.148 810.045 290.909 815.94C299.156 823.13 313.367 847.875 313.367 847.875" stroke="#71717A" stroke-linecap="round"/>
</g>
<defs>
<clipPath id="clip0_62_13">
<rect width="850" height="360" fill="white" transform="translate(360) rotate(90)"/>
</clipPath>
</defs>
</svg>
